<svg width="20" height="20" viewBox="0 0 20 20" fill="none" xmlns="http://www.w3.org/2000/svg">
<path fill-rule="evenodd" clip-rule="evenodd" d="M5.35428 3.18166C4.75152 3.18166 4.17344 3.4211 3.74722 3.84732C3.321 4.27354 3.08156 4.85162 3.08156 5.45438C3.08156 6.05715 3.321 6.63522 3.74722 7.06144C4.17344 7.48766 4.75152 7.72711 5.35428 7.72711C5.95705 7.72711 6.53513 7.48766 6.96135 7.06144C7.38757 6.63522 7.62701 6.05715 7.62701 5.45438C7.62701 4.85162 7.38757 4.27354 6.96135 3.84732C6.53513 3.4211 5.95705 3.18166 5.35428 3.18166ZM1.56641 5.45438C1.56641 4.44977 1.96549 3.48631 2.67585 2.77595C3.38622 2.06558 4.34968 1.6665 5.35428 1.6665C6.35889 1.6665 7.32235 2.06558 8.03272 2.77595C8.74308 3.48631 9.14216 4.44977 9.14216 5.45438C9.14216 6.45899 8.74308 7.42245 8.03272 8.13282C7.32235 8.84318 6.35889 9.24226 5.35428 9.24226C4.34968 9.24226 3.38622 8.84318 2.67585 8.13282C1.96549 7.42245 1.56641 6.45899 1.56641 5.45438ZM3.83913 12.2726C3.63821 12.2726 3.44552 12.3524 3.30345 12.4945C3.16137 12.6365 3.08156 12.8292 3.08156 13.0301V16.0604C3.08156 16.4786 3.42095 16.818 3.83913 16.818H6.86944C7.07036 16.818 7.26305 16.7382 7.40512 16.5961C7.5472 16.4541 7.62701 16.2614 7.62701 16.0604V13.0301C7.62701 12.8292 7.5472 12.6365 7.40512 12.4945C7.26305 12.3524 7.07036 12.2726 6.86944 12.2726H3.83913ZM1.56641 13.0301C1.56641 12.4274 1.80585 11.8493 2.23207 11.4231C2.65829 10.9969 3.23637 10.7574 3.83913 10.7574H6.86944C7.4722 10.7574 8.05028 10.9969 8.4765 11.4231C8.90272 11.8493 9.14216 12.4274 9.14216 13.0301V16.0604C9.14216 16.6632 8.90272 17.2413 8.4765 17.6675C8.05028 18.0937 7.4722 18.3332 6.86944 18.3332H3.83913C3.23637 18.3332 2.65829 18.0937 2.23207 17.6675C1.80585 17.2413 1.56641 16.6632 1.56641 16.0604V13.0301ZM14.4452 12.2726C14.1467 12.2726 13.8512 12.3314 13.5755 12.4456C13.2997 12.5598 13.0492 12.7272 12.8381 12.9382C12.6271 13.1493 12.4597 13.3998 12.3455 13.6756C12.2313 13.9513 12.1725 14.2468 12.1725 14.5453C12.1725 14.8438 12.2313 15.1393 12.3455 15.415C12.4597 15.6908 12.6271 15.9413 12.8381 16.1524C13.0492 16.3634 13.2997 16.5308 13.5755 16.645C13.8512 16.7592 14.1467 16.818 14.4452 16.818C15.048 16.818 15.626 16.5786 16.0523 16.1524C16.4785 15.7261 16.7179 15.1481 16.7179 14.5453C16.7179 13.9425 16.4785 13.3644 16.0523 12.9382C15.626 12.512 15.048 12.2726 14.4452 12.2726ZM10.6573 14.5453C10.6573 13.5407 11.0564 12.5772 11.7668 11.8669C12.4771 11.1565 13.4406 10.7574 14.4452 10.7574C15.4498 10.7574 16.4133 11.1565 17.1236 11.8669C17.834 12.5772 18.2331 13.5407 18.2331 14.5453C18.2331 15.5499 17.834 16.5134 17.1236 17.2237C16.4133 17.9341 15.4498 18.3332 14.4452 18.3332C13.4406 18.3332 12.4771 17.9341 11.7668 17.2237C11.0564 16.5134 10.6573 15.5499 10.6573 14.5453ZM14.5462 1.80792C14.6793 1.80783 14.81 1.8428 14.9253 1.90929C15.0405 1.97579 15.1362 2.07147 15.2028 2.18671L18.3341 7.60085C18.4006 7.71605 18.4356 7.84673 18.4356 7.97976C18.4356 8.11278 18.4005 8.24345 18.334 8.35863C18.2674 8.47381 18.1717 8.56944 18.0565 8.6359C17.9412 8.70235 17.8105 8.7373 17.6775 8.73721H11.4149C11.2819 8.7373 11.1512 8.70235 11.0359 8.6359C10.9207 8.56944 10.825 8.47381 10.7584 8.35863C10.6919 8.24345 10.6569 8.11278 10.6568 7.97976C10.6568 7.84673 10.6918 7.71605 10.7583 7.60085L13.8896 2.18671C13.9562 2.07147 14.0519 1.97579 14.1671 1.90929C14.2824 1.8428 14.4131 1.80783 14.5462 1.80792ZM12.728 7.22206H16.3644L14.5462 4.07862L12.728 7.22206Z" fill="#BFB5CB"/>
</svg>
